<?xml version="1.0" encoding="utf-8"?>
<svg xmlns="http://www.w3.org/2000/svg" viewBox="137.451 196.22 183.627 111.843" width="183.627" height="111.843"><path d="M174.145 234.066c-5.812 27.497-31.26 37.699-52.31 37.699-30.318 0-54.038-21.88-54.038-52.484 0-30.455 23.249-52.335 54.038-52.335 19.95 0 42.57 12.714 50.11 32.525v-.148c1.415 3.4 2.2 9.166 2.986 17.888h-59.223V202.28h40.686c-6.597-15.08-21.05-20.994-34.559-20.994-21.52 0-38.172 16.115-38.172 37.995 0 21.733 16.651 37.552 38.172 37.552 13.98 0 30.946-6.062 35.345-22.768zm71.318-66.38h20.578l-34.716 38.881c18.85 3.105 28.433 17.002 28.433 31.638 0 16.41-11.94 32.968-35.816 32.968h-40.058V167.685h15.71v88.409h24.348c13.352 0 19.95-9.019 19.95-17.89 0-9.017-6.598-18.036-19.95-18.036H201.94Zm62.049-1.036c18.85 0 40.529 10.94 40.529 31.934v72.441h-16.023v-72.293c0-11.384-13.039-17.15-24.506-17.15-11.625 0-24.663 5.618-24.663 17.002v72.441h-16.022v-72.293c0-21.141 21.363-32.082 40.685-32.082m51.21 104.523V167.685h16.024v34.447h24.19c23.721 0 35.66 17.15 35.66 34.447s-11.939 34.594-35.66 34.594zm16.024-54.257v39.177h24.19c13.353 0 19.95-9.757 19.95-19.662 0-9.758-6.597-19.515-19.95-19.515zm160.228 2.513c0-10.644-4.555-19.958-11.624-26.759-7.383-6.948-17.594-11.236-28.433-11.236s-20.892 4.288-28.118 11.236c-7.226 6.8-11.782 16.263-11.782 26.76s4.556 19.958 11.782 26.758c7.226 6.949 17.28 11.236 28.118 11.236 10.84 0 21.05-4.287 28.433-11.236 7.069-6.8 11.624-16.114 11.624-26.759m-95.98 0c0-14.636 6.44-27.794 16.337-37.403 10.054-9.758 24.192-15.671 39.586-15.671 15.552 0 29.532 5.913 39.743 15.67 9.897 9.61 16.337 22.768 16.337 37.404s-6.44 27.794-16.337 37.404c-10.21 9.61-24.191 15.67-39.743 15.67-15.394 0-29.532-6.06-39.586-15.67-9.896-9.61-16.337-22.768-16.337-37.404m238.93-51.744h20.578l-34.716 38.882c18.85 3.105 28.433 17.002 28.433 31.638 0 16.41-11.94 32.968-35.816 32.968h-40.058V167.685h15.71v88.409h24.348c13.352 0 19.95-9.019 19.95-17.89 0-9.017-6.598-18.036-19.95-18.036h-18.537zm18.379 23.507c6.44-15.376 19.164-23.507 37.544-23.507 26.704 0 40.371 18.037 40.214 36.073-.157 13.454-7.855 26.168-23.092 32.081-12.096 4.584-25.134 4.288-37.23.592v20.697h54.038v14.489h-70.06v-49.231l8.953-3.844c13.039 7.244 25.606 8.427 38.644 3.4 8.326-3.4 12.724-10.94 12.724-18.184.157-10.644-7.854-20.993-24.191-20.993-10.84 0-18.537 5.618-22.935 14.045z" style="fill:#08085e;fill-opacity:1;fill-rule:nonzero;stroke:none" transform="matrix(.26 0 0 -.26 119.824 329.474)"/><path d="M77.254 112.355h25.213c19.059 0 19.059-28.233 0-28.233H77.254Zm22.82 26.784H75.887V82.915h26.58c19.657 0 20.682 27.509 3.162 30.405 3.419 1.367 5.726 3.941 7.008 6.998 1.368 3.458 1.368 7.48 0 10.858-1.88 4.505-6.068 7.963-12.563 7.963zm-22.82-1.286h22.82c5.897 0 9.657-3.138 11.367-7.16a13.2 13.2 0 0 0 0-9.893c-1.71-4.022-5.47-7.158-11.367-7.158h-22.82Zm133.231.08h19.4c22.222 0 22.222-30.405 0-30.405h-11.623l-1.251.046 28.771-24.659h1.966l-27.52 23.407h9.658c23.93 0 23.93 32.898 0 32.898h-20.683V82.916h1.282zm172.881-55.018h1.453l-24.016 57.11h-1.453l-24.016-57.11h1.453l8.12 18.902h30.254zm-23.332 55.42 14.614-35.31h-29.144zm149.309-11.583 1.282.242-.085.643c-2.906 14.559-27.52 15.926-36.238 5.309-2.222-2.735-3.162-6.033-2.82-9.411 1.538-20.994 35.297-5.711 39.143-22.442 2.479-11.18-8.803-17.534-19.23-17.534-8.119 0-18.118 4.263-19.059 12.708l-.085.563-1.368-.16.086-.563c1.025-9.09 11.623-13.755 20.34-13.755 11.368 0 23.418 7.079 20.684 18.983-4.103 18.017-37.69 2.574-39.23 22.28-.256 3.137.514 6.114 2.65 8.607 3.59 4.424 10 6.355 15.64 6.435 5.385.08 11.282-1.448 14.957-5.148 1.71-1.77 2.735-3.78 3.248-6.113zm127.225 12.388h-26.751v-1.127h12.734V84.122h-12.734v-1.207h26.75v1.207h-12.734v53.891h12.735zm102.798 0H738V82.914h33.503v1.287h-32.136z" style="fill:#08085e;fill-opacity:1;fill-rule:nonzero;stroke:#000;stroke-width:.216;stroke-linecap:butt;stroke-linejoin:miter;stroke-miterlimit:22.9256;stroke-dasharray:none;stroke-opacity:1" transform="matrix(.26 0 0 -.26 119.824 329.474)"/><path d="M356.24 447.296h39.617v31.511H232.97l-51.893 33.712h225.111l30.541-20.287v-45.199L404.8 415.58Z" style="fill:#08085e;fill-opacity:1;fill-rule:evenodd;stroke:none" transform="matrix(.26 0 0 -.26 119.824 329.474)"/><path d="m400.742 406.767-62.601 40.529h-57.38l140.604-91.679 57.246-.041-77.852 51.18zm93.198-60.6 41.687-27.698h-57.645l-42.27 27.654zm17.716.013 41.846-27.711h89.944l17.337 17.713v57.812l-23.289 15.253H455.788v9.84h146.81v12.649l-22.551 15.241-128.95.127-38.049-37.194 43.567-28.4 170.445.051v-35.293z" style="fill:#08085e;fill-opacity:1;fill-rule:evenodd;stroke:none" transform="matrix(.26 0 0 -.26 119.824 329.474)"/></svg>