<svg xmlns="http://www.w3.org/2000/svg" xmlns:xlink="http://www.w3.org/1999/xlink" width="445" zoomAndPan="magnify" viewBox="0 0 333.75 115.499997" height="154" preserveAspectRatio="xMidYMid meet" version="1.0"><defs><g/><clipPath id="81a1a86723"><path d="M 5.371094 32.324219 L 89.855469 32.324219 L 89.855469 78.976562 L 5.371094 78.976562 Z M 5.371094 32.324219 " clip-rule="nonzero"/></clipPath><clipPath id="1a7f4923c7"><path d="M 5.574219 78.769531 L 5.574219 32.417969 L 47.621094 54.722656 L 89.648438 32.417969 L 89.648438 78.769531 L 82.371094 78.769531 L 82.371094 44.4375 L 47.621094 62.898438 L 12.433594 44.4375 L 12.433594 78.769531 Z M 5.574219 78.769531 " clip-rule="nonzero"/></clipPath><clipPath id="7f114cdaec"><path d="M 23.371094 14 L 71.859375 14 L 71.859375 100.648438 L 23.371094 100.648438 Z M 23.371094 14 " clip-rule="nonzero"/></clipPath><clipPath id="d3ae27eacb"><path d="M 23.59375 14.007812 L 23.59375 45.304688 L 30.875 48.738281 L 30.875 21.277344 L 64.347656 21.277344 L 64.347656 31.144531 L 71.648438 27.28125 L 71.648438 14.007812 Z M 64.347656 45.730469 L 64.347656 93.367188 L 30.882812 93.367188 L 30.882812 68.472656 L 23.59375 64.609375 L 23.59375 100.59375 L 71.648438 100.59375 L 71.648438 45.730469 Z M 64.347656 45.730469 " clip-rule="nonzero"/></clipPath><clipPath id="f6b8fc5729"><path d="M 44.652344 93.425781 L 50.578125 93.425781 L 50.578125 109.296875 L 44.652344 109.296875 Z M 44.652344 93.425781 " clip-rule="nonzero"/></clipPath><clipPath id="3ee1eb9c9f"><path d="M 44.652344 4.976562 L 50.578125 4.976562 L 50.578125 20.851562 L 44.652344 20.851562 Z M 44.652344 4.976562 " clip-rule="nonzero"/></clipPath></defs><g clip-path="url(#81a1a86723)"><g clip-path="url(#1a7f4923c7)"><path fill="#5ab334" d="M 0.59375 0 L 94.632812 0 L 94.632812 114.242188 L 0.59375 114.242188 Z M 0.59375 0 " fill-opacity="1" fill-rule="nonzero"/></g></g><g clip-path="url(#7f114cdaec)"><g clip-path="url(#d3ae27eacb)"><path fill="#5ab334" d="M 0.59375 0 L 94.632812 0 L 94.632812 114.242188 L 0.59375 114.242188 Z M 0.59375 0 " fill-opacity="1" fill-rule="nonzero"/></g></g><g clip-path="url(#f6b8fc5729)"><path fill="#5ab334" d="M 0.59375 0 L 94.632812 0 L 94.632812 114.242188 L 0.59375 114.242188 Z M 0.59375 0 " fill-opacity="1" fill-rule="nonzero"/></g><g clip-path="url(#3ee1eb9c9f)"><path fill="#5ab334" d="M 0.59375 0 L 94.632812 0 L 94.632812 114.242188 L 0.59375 114.242188 Z M 0.59375 0 " fill-opacity="1" fill-rule="nonzero"/></g><g fill="#350399" fill-opacity="1"><g transform="translate(111.577876, 55.483277)"><g><path d="M 11.515625 -11.625 L 19.484375 -20.5 L 20.75 -20.5 L 20.75 0 L 16.65625 0 L 16.6875 -11.265625 L 11.515625 -5.84375 L 6.359375 -11.265625 L 6.359375 0 L 2.265625 0 L 2.265625 -20.5 L 3.5625 -20.5 Z M 11.515625 -11.625 "/></g></g></g><g fill="#350399" fill-opacity="1"><g transform="translate(134.609917, 55.483277)"><g><path d="M 11.96875 0.28125 C 10.238281 0.28125 8.71875 -0.0078125 7.40625 -0.59375 C 6.101562 -1.175781 5.019531 -1.960938 4.15625 -2.953125 C 3.289062 -3.941406 2.640625 -5.054688 2.203125 -6.296875 C 1.765625 -7.535156 1.546875 -8.804688 1.546875 -10.109375 C 1.546875 -11.421875 1.765625 -12.695312 2.203125 -13.9375 C 2.640625 -15.1875 3.289062 -16.304688 4.15625 -17.296875 C 5.019531 -18.285156 6.101562 -19.070312 7.40625 -19.65625 C 8.71875 -20.238281 10.238281 -20.53125 11.96875 -20.53125 C 13.695312 -20.53125 15.21875 -20.238281 16.53125 -19.65625 C 17.84375 -19.070312 18.929688 -18.285156 19.796875 -17.296875 C 20.660156 -16.304688 21.304688 -15.1875 21.734375 -13.9375 C 22.171875 -12.695312 22.390625 -11.421875 22.390625 -10.109375 C 22.390625 -8.804688 22.171875 -7.535156 21.734375 -6.296875 C 21.304688 -5.054688 20.660156 -3.941406 19.796875 -2.953125 C 18.929688 -1.960938 17.84375 -1.175781 16.53125 -0.59375 C 15.21875 -0.0078125 13.695312 0.28125 11.96875 0.28125 Z M 11.96875 -3.890625 C 13.113281 -3.890625 14.097656 -4.113281 14.921875 -4.5625 C 15.753906 -5.019531 16.414062 -5.617188 16.90625 -6.359375 C 17.394531 -7.109375 17.722656 -7.925781 17.890625 -8.8125 C 18.066406 -9.695312 18.066406 -10.582031 17.890625 -11.46875 C 17.722656 -12.351562 17.394531 -13.164062 16.90625 -13.90625 C 16.414062 -14.644531 15.753906 -15.238281 14.921875 -15.6875 C 14.097656 -16.144531 13.113281 -16.375 11.96875 -16.375 C 10.820312 -16.375 9.832031 -16.144531 9 -15.6875 C 8.175781 -15.238281 7.519531 -14.644531 7.03125 -13.90625 C 6.539062 -13.164062 6.207031 -12.351562 6.03125 -11.46875 C 5.863281 -10.582031 5.863281 -9.695312 6.03125 -8.8125 C 6.207031 -7.925781 6.539062 -7.109375 7.03125 -6.359375 C 7.519531 -5.617188 8.175781 -5.019531 9 -4.5625 C 9.832031 -4.113281 10.820312 -3.890625 11.96875 -3.890625 Z M 11.96875 -3.890625 "/></g></g></g><g fill="#350399" fill-opacity="1"><g transform="translate(158.51695, 55.483277)"><g><path d="M 6.296875 -10.984375 L 6.296875 0 L 2.265625 0 L 2.265625 -20.609375 L 3.328125 -20.609375 L 13.53125 -8.75 L 13.53125 -20.15625 L 17.59375 -20.15625 L 17.59375 0.421875 L 16.515625 0.421875 Z M 6.296875 -10.984375 "/></g></g></g><g fill="#350399" fill-opacity="1"><g transform="translate(178.38773, 55.483277)"><g><path d="M 12.703125 0 L 2.265625 0 L 2.265625 -20.1875 L 12.359375 -20.1875 L 12.359375 -16.15625 L 6.296875 -16.15625 L 6.296875 -12.109375 L 11.609375 -12.109375 L 11.609375 -8.078125 L 6.296875 -8.078125 L 6.296875 -4.03125 L 12.703125 -4.03125 Z M 12.703125 0 "/></g></g></g><g fill="#350399" fill-opacity="1"><g transform="translate(192.613409, 55.483277)"><g><path d="M 7.203125 0 L 7.203125 -9.09375 L 0.171875 -20.1875 L 5.078125 -20.1875 L 9.203125 -13.234375 L 13.328125 -20.1875 L 18.265625 -20.1875 L 11.203125 -9.09375 L 11.203125 0 Z M 7.203125 0 "/></g></g></g><g fill="#350399" fill-opacity="1"><g transform="translate(210.931789, 55.483277)"><g/></g></g><g fill="#350399" fill-opacity="1"><g transform="translate(218.947845, 55.483277)"><g><path d="M 1.328125 -1.296875 L 1.828125 -5.53125 C 2.609375 -4.988281 3.378906 -4.597656 4.140625 -4.359375 C 4.898438 -4.128906 5.585938 -3.992188 6.203125 -3.953125 C 6.828125 -3.910156 7.289062 -3.898438 7.59375 -3.921875 C 8.195312 -3.960938 8.707031 -4.175781 9.125 -4.5625 C 9.550781 -4.945312 9.738281 -5.410156 9.6875 -5.953125 C 9.644531 -6.535156 9.425781 -6.976562 9.03125 -7.28125 C 8.632812 -7.582031 8.15625 -7.828125 7.59375 -8.015625 C 6.539062 -8.410156 5.554688 -8.867188 4.640625 -9.390625 C 3.734375 -9.910156 3 -10.554688 2.4375 -11.328125 C 1.882812 -12.097656 1.609375 -13.046875 1.609375 -14.171875 C 1.609375 -15.304688 1.847656 -16.328125 2.328125 -17.234375 C 2.804688 -18.148438 3.476562 -18.878906 4.34375 -19.421875 C 5.207031 -19.972656 6.195312 -20.273438 7.3125 -20.328125 C 7.84375 -20.367188 8.488281 -20.347656 9.25 -20.265625 C 10.007812 -20.191406 11.039062 -19.929688 12.34375 -19.484375 L 11.828125 -15.578125 C 10.722656 -16.035156 9.835938 -16.296875 9.171875 -16.359375 C 8.515625 -16.421875 8.023438 -16.445312 7.703125 -16.4375 C 6.992188 -16.394531 6.472656 -16.144531 6.140625 -15.6875 C 5.804688 -15.238281 5.660156 -14.734375 5.703125 -14.171875 C 5.753906 -13.609375 6 -13.179688 6.4375 -12.890625 C 6.875 -12.597656 7.382812 -12.347656 7.96875 -12.140625 C 9.019531 -11.765625 9.988281 -11.296875 10.875 -10.734375 C 11.757812 -10.179688 12.46875 -9.515625 13 -8.734375 C 13.539062 -7.953125 13.8125 -7.023438 13.8125 -5.953125 C 13.8125 -4.847656 13.566406 -3.84375 13.078125 -2.9375 C 12.585938 -2.03125 11.882812 -1.300781 10.96875 -0.75 C 10.050781 -0.207031 8.960938 0.0976562 7.703125 0.171875 C 7.328125 0.191406 6.8125 0.175781 6.15625 0.125 C 5.507812 0.0820312 4.769531 -0.046875 3.9375 -0.265625 C 3.113281 -0.484375 2.242188 -0.828125 1.328125 -1.296875 Z M 1.328125 -1.296875 "/></g></g></g><g fill="#350399" fill-opacity="1"><g transform="translate(233.879155, 55.483277)"><g><path d="M 7.203125 0 L 7.203125 -9.09375 L 0.171875 -20.1875 L 5.078125 -20.1875 L 9.203125 -13.234375 L 13.328125 -20.1875 L 18.265625 -20.1875 L 11.203125 -9.09375 L 11.203125 0 Z M 7.203125 0 "/></g></g></g><g fill="#350399" fill-opacity="1"><g transform="translate(252.197536, 55.483277)"><g><path d="M 1.328125 -1.296875 L 1.828125 -5.53125 C 2.609375 -4.988281 3.378906 -4.597656 4.140625 -4.359375 C 4.898438 -4.128906 5.585938 -3.992188 6.203125 -3.953125 C 6.828125 -3.910156 7.289062 -3.898438 7.59375 -3.921875 C 8.195312 -3.960938 8.707031 -4.175781 9.125 -4.5625 C 9.550781 -4.945312 9.738281 -5.410156 9.6875 -5.953125 C 9.644531 -6.535156 9.425781 -6.976562 9.03125 -7.28125 C 8.632812 -7.582031 8.15625 -7.828125 7.59375 -8.015625 C 6.539062 -8.410156 5.554688 -8.867188 4.640625 -9.390625 C 3.734375 -9.910156 3 -10.554688 2.4375 -11.328125 C 1.882812 -12.097656 1.609375 -13.046875 1.609375 -14.171875 C 1.609375 -15.304688 1.847656 -16.328125 2.328125 -17.234375 C 2.804688 -18.148438 3.476562 -18.878906 4.34375 -19.421875 C 5.207031 -19.972656 6.195312 -20.273438 7.3125 -20.328125 C 7.84375 -20.367188 8.488281 -20.347656 9.25 -20.265625 C 10.007812 -20.191406 11.039062 -19.929688 12.34375 -19.484375 L 11.828125 -15.578125 C 10.722656 -16.035156 9.835938 -16.296875 9.171875 -16.359375 C 8.515625 -16.421875 8.023438 -16.445312 7.703125 -16.4375 C 6.992188 -16.394531 6.472656 -16.144531 6.140625 -15.6875 C 5.804688 -15.238281 5.660156 -14.734375 5.703125 -14.171875 C 5.753906 -13.609375 6 -13.179688 6.4375 -12.890625 C 6.875 -12.597656 7.382812 -12.347656 7.96875 -12.140625 C 9.019531 -11.765625 9.988281 -11.296875 10.875 -10.734375 C 11.757812 -10.179688 12.46875 -9.515625 13 -8.734375 C 13.539062 -7.953125 13.8125 -7.023438 13.8125 -5.953125 C 13.8125 -4.847656 13.566406 -3.84375 13.078125 -2.9375 C 12.585938 -2.03125 11.882812 -1.300781 10.96875 -0.75 C 10.050781 -0.207031 8.960938 0.0976562 7.703125 0.171875 C 7.328125 0.191406 6.8125 0.175781 6.15625 0.125 C 5.507812 0.0820312 4.769531 -0.046875 3.9375 -0.265625 C 3.113281 -0.484375 2.242188 -0.828125 1.328125 -1.296875 Z M 1.328125 -1.296875 "/></g></g></g><g fill="#350399" fill-opacity="1"><g transform="translate(267.128845, 55.483277)"><g><path d="M 9.625 0 L 5.59375 0 L 5.59375 -16.15625 L 0.5625 -16.15625 L 0.5625 -20.15625 L 14.65625 -20.15625 L 14.65625 -16.15625 L 9.625 -16.15625 Z M 9.625 0 "/></g></g></g><g fill="#350399" fill-opacity="1"><g transform="translate(282.568214, 55.483277)"><g><path d="M 12.703125 0 L 2.265625 0 L 2.265625 -20.1875 L 12.359375 -20.1875 L 12.359375 -16.15625 L 6.296875 -16.15625 L 6.296875 -12.109375 L 11.609375 -12.109375 L 11.609375 -8.078125 L 6.296875 -8.078125 L 6.296875 -4.03125 L 12.703125 -4.03125 Z M 12.703125 0 "/></g></g></g><g fill="#350399" fill-opacity="1"><g transform="translate(296.793892, 55.483277)"><g><path d="M 11.515625 -11.625 L 19.484375 -20.5 L 20.75 -20.5 L 20.75 0 L 16.65625 0 L 16.6875 -11.265625 L 11.515625 -5.84375 L 6.359375 -11.265625 L 6.359375 0 L 2.265625 0 L 2.265625 -20.5 L 3.5625 -20.5 Z M 11.515625 -11.625 "/></g></g></g><g fill="#2c3a4d" fill-opacity="1"><g transform="translate(111.577876, 71.912156)"><g><path d="M 4.375 0.140625 C 3.65625 0.140625 3.015625 -0.0195312 2.453125 -0.34375 C 1.898438 -0.675781 1.460938 -1.128906 1.140625 -1.703125 C 0.828125 -2.273438 0.671875 -2.929688 0.671875 -3.671875 C 0.671875 -4.410156 0.828125 -5.066406 1.140625 -5.640625 C 1.460938 -6.210938 1.898438 -6.660156 2.453125 -6.984375 C 3.015625 -7.304688 3.648438 -7.46875 4.359375 -7.46875 C 4.921875 -7.46875 5.4375 -7.367188 5.90625 -7.171875 C 6.382812 -6.972656 6.789062 -6.691406 7.125 -6.328125 C 7.457031 -5.960938 7.703125 -5.546875 7.859375 -5.078125 L 7.171875 -5.078125 C 6.941406 -5.617188 6.582031 -6.046875 6.09375 -6.359375 C 5.613281 -6.671875 5.046875 -6.828125 4.390625 -6.828125 C 3.785156 -6.828125 3.25 -6.691406 2.78125 -6.421875 C 2.320312 -6.160156 1.960938 -5.789062 1.703125 -5.3125 C 1.453125 -4.84375 1.328125 -4.296875 1.328125 -3.671875 C 1.328125 -3.046875 1.453125 -2.492188 1.703125 -2.015625 C 1.960938 -1.535156 2.320312 -1.160156 2.78125 -0.890625 C 3.25 -0.628906 3.785156 -0.5 4.390625 -0.5 C 4.960938 -0.5 5.460938 -0.613281 5.890625 -0.84375 C 6.328125 -1.082031 6.675781 -1.410156 6.9375 -1.828125 C 7.207031 -2.242188 7.363281 -2.71875 7.40625 -3.25 L 4.15625 -3.25 L 4.15625 -3.859375 L 8.078125 -3.859375 C 8.085938 -3.078125 7.9375 -2.382812 7.625 -1.78125 C 7.320312 -1.1875 6.890625 -0.71875 6.328125 -0.375 C 5.773438 -0.03125 5.125 0.140625 4.375 0.140625 Z M 4.375 0.140625 "/></g></g></g><g fill="#2c3a4d" fill-opacity="1"><g transform="translate(128.693906, 71.912156)"><g><path d="M 1.1875 0 L 1.1875 -7.34375 L 5.5 -7.34375 L 5.5 -6.734375 L 1.828125 -6.734375 L 1.828125 -4.03125 L 5.234375 -4.03125 L 5.234375 -3.453125 L 1.828125 -3.453125 L 1.828125 -0.59375 L 5.625 -0.59375 L 5.625 0 Z M 1.1875 0 "/></g></g></g><g fill="#2c3a4d" fill-opacity="1"><g transform="translate(143.470715, 71.912156)"><g><path d="M 3.546875 0.140625 C 2.984375 0.140625 2.492188 0.046875 2.078125 -0.140625 C 1.660156 -0.335938 1.335938 -0.609375 1.109375 -0.953125 C 0.878906 -1.304688 0.753906 -1.71875 0.734375 -2.1875 L 1.359375 -2.1875 C 1.398438 -1.644531 1.613281 -1.222656 2 -0.921875 C 2.394531 -0.617188 2.910156 -0.46875 3.546875 -0.46875 C 4.148438 -0.46875 4.625 -0.59375 4.96875 -0.84375 C 5.320312 -1.09375 5.5 -1.429688 5.5 -1.859375 C 5.5 -2.242188 5.335938 -2.554688 5.015625 -2.796875 C 4.691406 -3.035156 4.160156 -3.234375 3.421875 -3.390625 C 2.515625 -3.609375 1.859375 -3.878906 1.453125 -4.203125 C 1.046875 -4.535156 0.84375 -4.976562 0.84375 -5.53125 C 0.84375 -6.113281 1.066406 -6.582031 1.515625 -6.9375 C 1.960938 -7.289062 2.578125 -7.46875 3.359375 -7.46875 C 4.171875 -7.46875 4.804688 -7.269531 5.265625 -6.875 C 5.734375 -6.488281 5.984375 -5.945312 6.015625 -5.25 L 5.390625 -5.25 C 5.359375 -5.757812 5.164062 -6.15625 4.8125 -6.4375 C 4.457031 -6.726562 3.972656 -6.875 3.359375 -6.875 C 2.765625 -6.875 2.300781 -6.75 1.96875 -6.5 C 1.644531 -6.257812 1.484375 -5.9375 1.484375 -5.53125 C 1.484375 -5.164062 1.640625 -4.859375 1.953125 -4.609375 C 2.265625 -4.367188 2.804688 -4.164062 3.578125 -4 C 4.503906 -3.78125 5.160156 -3.5 5.546875 -3.15625 C 5.941406 -2.820312 6.140625 -2.390625 6.140625 -1.859375 C 6.140625 -1.242188 5.90625 -0.753906 5.4375 -0.390625 C 4.96875 -0.0351562 4.335938 0.140625 3.546875 0.140625 Z M 3.546875 0.140625 "/></g></g></g><g fill="#2c3a4d" fill-opacity="1"><g transform="translate(158.751038, 71.912156)"><g><path d="M 2.921875 0 L 2.921875 -6.734375 L 0.390625 -6.734375 L 0.390625 -7.34375 L 6.09375 -7.34375 L 6.09375 -6.734375 L 3.546875 -6.734375 L 3.546875 0 Z M 2.921875 0 "/></g></g></g><g fill="#2c3a4d" fill-opacity="1"><g transform="translate(173.632747, 71.912156)"><g><path d="M 0.234375 0 L 3.265625 -7.34375 L 3.875 -7.34375 L 6.921875 0 L 6.25 0 L 5.484375 -1.84375 L 1.671875 -1.84375 L 0.90625 0 Z M 1.921875 -2.4375 L 5.25 -2.4375 L 3.578125 -6.46875 Z M 2.0625 -8.203125 L 2.0625 -8.390625 C 2.0625 -8.671875 2.132812 -8.894531 2.28125 -9.0625 C 2.425781 -9.226562 2.625 -9.3125 2.875 -9.3125 C 3.050781 -9.3125 3.195312 -9.28125 3.3125 -9.21875 C 3.425781 -9.15625 3.53125 -9.078125 3.625 -8.984375 C 3.71875 -8.898438 3.804688 -8.828125 3.890625 -8.765625 C 3.984375 -8.703125 4.09375 -8.671875 4.21875 -8.671875 C 4.476562 -8.671875 4.609375 -8.820312 4.609375 -9.125 L 4.609375 -9.28125 L 5.109375 -9.28125 L 5.109375 -9.078125 C 5.109375 -8.796875 5.035156 -8.570312 4.890625 -8.40625 C 4.742188 -8.25 4.539062 -8.171875 4.28125 -8.171875 C 4.113281 -8.171875 3.972656 -8.203125 3.859375 -8.265625 C 3.742188 -8.328125 3.632812 -8.398438 3.53125 -8.484375 C 3.4375 -8.578125 3.34375 -8.65625 3.25 -8.71875 C 3.164062 -8.78125 3.066406 -8.8125 2.953125 -8.8125 C 2.816406 -8.8125 2.710938 -8.769531 2.640625 -8.6875 C 2.578125 -8.601562 2.546875 -8.492188 2.546875 -8.359375 L 2.546875 -8.203125 Z M 2.0625 -8.203125 "/></g></g></g><g fill="#2c3a4d" fill-opacity="1"><g transform="translate(189.185801, 71.912156)"><g><path d="M 4.453125 0.140625 C 3.710938 0.140625 3.054688 -0.0195312 2.484375 -0.34375 C 1.921875 -0.664062 1.476562 -1.113281 1.15625 -1.6875 C 0.832031 -2.257812 0.671875 -2.921875 0.671875 -3.671875 C 0.671875 -4.421875 0.832031 -5.082031 1.15625 -5.65625 C 1.476562 -6.226562 1.921875 -6.671875 2.484375 -6.984375 C 3.054688 -7.304688 3.710938 -7.46875 4.453125 -7.46875 C 5.203125 -7.46875 5.859375 -7.304688 6.421875 -6.984375 C 6.992188 -6.671875 7.4375 -6.226562 7.75 -5.65625 C 8.070312 -5.082031 8.234375 -4.421875 8.234375 -3.671875 C 8.234375 -2.921875 8.070312 -2.257812 7.75 -1.6875 C 7.4375 -1.113281 6.992188 -0.664062 6.421875 -0.34375 C 5.859375 -0.0195312 5.203125 0.140625 4.453125 0.140625 Z M 1.328125 -3.671875 C 1.328125 -3.046875 1.457031 -2.492188 1.71875 -2.015625 C 1.988281 -1.535156 2.359375 -1.160156 2.828125 -0.890625 C 3.296875 -0.628906 3.835938 -0.5 4.453125 -0.5 C 5.078125 -0.5 5.625 -0.628906 6.09375 -0.890625 C 6.5625 -1.160156 6.925781 -1.535156 7.1875 -2.015625 C 7.457031 -2.492188 7.59375 -3.046875 7.59375 -3.671875 C 7.59375 -4.296875 7.457031 -4.84375 7.1875 -5.3125 C 6.925781 -5.789062 6.5625 -6.160156 6.09375 -6.421875 C 5.625 -6.691406 5.078125 -6.828125 4.453125 -6.828125 C 3.835938 -6.828125 3.296875 -6.691406 2.828125 -6.421875 C 2.359375 -6.160156 1.988281 -5.789062 1.71875 -5.3125 C 1.457031 -4.84375 1.328125 -4.296875 1.328125 -3.671875 Z M 1.328125 -3.671875 "/></g></g></g><g fill="#2c3a4d" fill-opacity="1"><g transform="translate(206.49064, 71.912156)"><g/></g></g><g fill="#2c3a4d" fill-opacity="1"><g transform="translate(217.690444, 71.912156)"><g><path d="M 1.1875 0 L 1.1875 -7.34375 L 5.5 -7.34375 L 5.5 -6.734375 L 1.828125 -6.734375 L 1.828125 -4.03125 L 5.234375 -4.03125 L 5.234375 -3.453125 L 1.828125 -3.453125 L 1.828125 -0.59375 L 5.625 -0.59375 L 5.625 0 Z M 1.1875 0 "/></g></g></g><g fill="#2c3a4d" fill-opacity="1"><g transform="translate(232.467252, 71.912156)"><g/></g></g><g fill="#2c3a4d" fill-opacity="1"><g transform="translate(243.667051, 71.912156)"><g><path d="M 1.1875 0 L 1.1875 -7.34375 L 3.5 -7.34375 C 4.28125 -7.34375 4.957031 -7.1875 5.53125 -6.875 C 6.101562 -6.570312 6.539062 -6.144531 6.84375 -5.59375 C 7.15625 -5.050781 7.3125 -4.410156 7.3125 -3.671875 C 7.3125 -2.929688 7.15625 -2.285156 6.84375 -1.734375 C 6.539062 -1.179688 6.101562 -0.753906 5.53125 -0.453125 C 4.957031 -0.148438 4.28125 0 3.5 0 Z M 1.828125 -0.609375 L 3.5 -0.609375 C 4.15625 -0.609375 4.71875 -0.734375 5.1875 -0.984375 C 5.664062 -1.234375 6.03125 -1.585938 6.28125 -2.046875 C 6.539062 -2.503906 6.671875 -3.046875 6.671875 -3.671875 C 6.671875 -4.296875 6.539062 -4.832031 6.28125 -5.28125 C 6.019531 -5.738281 5.648438 -6.09375 5.171875 -6.34375 C 4.703125 -6.601562 4.140625 -6.734375 3.484375 -6.734375 L 1.828125 -6.734375 Z M 1.828125 -0.609375 "/></g></g></g><g fill="#2c3a4d" fill-opacity="1"><g transform="translate(260.048801, 71.912156)"><g><path d="M 0.234375 0 L 3.265625 -7.34375 L 3.875 -7.34375 L 6.921875 0 L 6.25 0 L 5.484375 -1.84375 L 1.671875 -1.84375 L 0.90625 0 Z M 1.921875 -2.4375 L 5.25 -2.4375 L 3.578125 -6.46875 Z M 1.921875 -2.4375 "/></g></g></g><g fill="#2c3a4d" fill-opacity="1"><g transform="translate(275.601855, 71.912156)"><g><path d="M 1.1875 0 L 1.1875 -7.34375 L 3.5 -7.34375 C 4.28125 -7.34375 4.957031 -7.1875 5.53125 -6.875 C 6.101562 -6.570312 6.539062 -6.144531 6.84375 -5.59375 C 7.15625 -5.050781 7.3125 -4.410156 7.3125 -3.671875 C 7.3125 -2.929688 7.15625 -2.285156 6.84375 -1.734375 C 6.539062 -1.179688 6.101562 -0.753906 5.53125 -0.453125 C 4.957031 -0.148438 4.28125 0 3.5 0 Z M 1.828125 -0.609375 L 3.5 -0.609375 C 4.15625 -0.609375 4.71875 -0.734375 5.1875 -0.984375 C 5.664062 -1.234375 6.03125 -1.585938 6.28125 -2.046875 C 6.539062 -2.503906 6.671875 -3.046875 6.671875 -3.671875 C 6.671875 -4.296875 6.539062 -4.832031 6.28125 -5.28125 C 6.019531 -5.738281 5.648438 -6.09375 5.171875 -6.34375 C 4.703125 -6.601562 4.140625 -6.734375 3.484375 -6.734375 L 1.828125 -6.734375 Z M 1.828125 -0.609375 "/></g></g></g><g fill="#2c3a4d" fill-opacity="1"><g transform="translate(291.983604, 71.912156)"><g><path d="M 4.453125 0.140625 C 3.710938 0.140625 3.054688 -0.0195312 2.484375 -0.34375 C 1.921875 -0.664062 1.476562 -1.113281 1.15625 -1.6875 C 0.832031 -2.257812 0.671875 -2.921875 0.671875 -3.671875 C 0.671875 -4.421875 0.832031 -5.082031 1.15625 -5.65625 C 1.476562 -6.226562 1.921875 -6.671875 2.484375 -6.984375 C 3.054688 -7.304688 3.710938 -7.46875 4.453125 -7.46875 C 5.203125 -7.46875 5.859375 -7.304688 6.421875 -6.984375 C 6.992188 -6.671875 7.4375 -6.226562 7.75 -5.65625 C 8.070312 -5.082031 8.234375 -4.421875 8.234375 -3.671875 C 8.234375 -2.921875 8.070312 -2.257812 7.75 -1.6875 C 7.4375 -1.113281 6.992188 -0.664062 6.421875 -0.34375 C 5.859375 -0.0195312 5.203125 0.140625 4.453125 0.140625 Z M 1.328125 -3.671875 C 1.328125 -3.046875 1.457031 -2.492188 1.71875 -2.015625 C 1.988281 -1.535156 2.359375 -1.160156 2.828125 -0.890625 C 3.296875 -0.628906 3.835938 -0.5 4.453125 -0.5 C 5.078125 -0.5 5.625 -0.628906 6.09375 -0.890625 C 6.5625 -1.160156 6.925781 -1.535156 7.1875 -2.015625 C 7.457031 -2.492188 7.59375 -3.046875 7.59375 -3.671875 C 7.59375 -4.296875 7.457031 -4.84375 7.1875 -5.3125 C 6.925781 -5.789062 6.5625 -6.160156 6.09375 -6.421875 C 5.625 -6.691406 5.078125 -6.828125 4.453125 -6.828125 C 3.835938 -6.828125 3.296875 -6.691406 2.828125 -6.421875 C 2.359375 -6.160156 1.988281 -5.789062 1.71875 -5.3125 C 1.457031 -4.84375 1.328125 -4.296875 1.328125 -3.671875 Z M 1.328125 -3.671875 "/></g></g></g><g fill="#2c3a4d" fill-opacity="1"><g transform="translate(309.288454, 71.912156)"><g><path d="M 3.546875 0.140625 C 2.984375 0.140625 2.492188 0.046875 2.078125 -0.140625 C 1.660156 -0.335938 1.335938 -0.609375 1.109375 -0.953125 C 0.878906 -1.304688 0.753906 -1.71875 0.734375 -2.1875 L 1.359375 -2.1875 C 1.398438 -1.644531 1.613281 -1.222656 2 -0.921875 C 2.394531 -0.617188 2.910156 -0.46875 3.546875 -0.46875 C 4.148438 -0.46875 4.625 -0.59375 4.96875 -0.84375 C 5.320312 -1.09375 5.5 -1.429688 5.5 -1.859375 C 5.5 -2.242188 5.335938 -2.554688 5.015625 -2.796875 C 4.691406 -3.035156 4.160156 -3.234375 3.421875 -3.390625 C 2.515625 -3.609375 1.859375 -3.878906 1.453125 -4.203125 C 1.046875 -4.535156 0.84375 -4.976562 0.84375 -5.53125 C 0.84375 -6.113281 1.066406 -6.582031 1.515625 -6.9375 C 1.960938 -7.289062 2.578125 -7.46875 3.359375 -7.46875 C 4.171875 -7.46875 4.804688 -7.269531 5.265625 -6.875 C 5.734375 -6.488281 5.984375 -5.945312 6.015625 -5.25 L 5.390625 -5.25 C 5.359375 -5.757812 5.164062 -6.15625 4.8125 -6.4375 C 4.457031 -6.726562 3.972656 -6.875 3.359375 -6.875 C 2.765625 -6.875 2.300781 -6.75 1.96875 -6.5 C 1.644531 -6.257812 1.484375 -5.9375 1.484375 -5.53125 C 1.484375 -5.164062 1.640625 -4.859375 1.953125 -4.609375 C 2.265625 -4.367188 2.804688 -4.164062 3.578125 -4 C 4.503906 -3.78125 5.160156 -3.5 5.546875 -3.15625 C 5.941406 -2.820312 6.140625 -2.390625 6.140625 -1.859375 C 6.140625 -1.242188 5.90625 -0.753906 5.4375 -0.390625 C 4.96875 -0.0351562 4.335938 0.140625 3.546875 0.140625 Z M 3.546875 0.140625 "/></g></g></g></svg>