<?xml version="1.0" encoding="utf-8"?>
<svg width="2721.878" height="1199.766" viewBox="0 0 2721.878 1199.766" xmlns="http://www.w3.org/2000/svg"><path d="M549.053 502.267c21.285 5.381 56.067 13.24 92.662 13.24 115.964 0 150.972-33.914 150.972-98.46 0-71.11-44.854-99.553-134.562-99.553-60.17 0-120.34 35.008-145.501 53.606l-22.585-31.46 85.354-176.032H856.62c77.425 40.577 130.798 120.752 130.798 246.876 0 155.347-82.05 252.713-270.217 253.807l27.834 74.392h161.423L852.48 897.825H654.483L535.526 616.122c-1.442 5.42-3.134 10.912-5.167 16.443l-97.61 265.26H44.624V511.13H.498l126.49-347.523h109.085v184.518h41.021l67.25-184.518h194.795L428.617 390.792c29.395 19.757 60.374 47.666 82.428 82.116 18.007 28.12 10.497 22.402 38.008 29.359M926.714 777.51l13.17-38.828 3.793-11.183 205.84-563.892h34.628L1302.358 480.5l125.167-316.89h34.193l197.697 543.667V604.643l-74.422-205.1h74.422V163.609h156.55l34.9 98.628v137.308h120.397l63.65 175.039h-184.048v164.1h131.646l56.898 159.142h-507.36l-103.88-299.174-106.636 299.174h-33.796l-104.624-298.08-102.821 298.08H885.906ZM327.97 626.001c0-95.178-17.504-114.87-61.263-114.87h-30.633v227.552h30.633c43.76 0 61.263-18.599 61.263-112.682" style="fill:#c21d20;fill-opacity:1;fill-rule:evenodd;stroke:none" transform="matrix(1.33333 0 0 -1.33333 1.333 1198.433)"/><path d="M44.624 596.676V511.13l127.312-347.523h31.223z" style="fill:#991416;fill-opacity:1;fill-rule:evenodd;stroke:none" transform="matrix(1.33333 0 0 -1.33333 1.333 1198.433)"/><path d="M171.936 163.608 44.624 511.384v-.253H15.341l127.22-347.523z" style="fill:#7d0f11;fill-opacity:1;fill-rule:evenodd;stroke:none" transform="matrix(1.33333 0 0 -1.33333 1.333 1198.433)"/><path d="M142.44 163.936 15.342 511.13H.498l69.555-191.099 56.935-156.424ZM943.677 727.5l205.84-563.892h34.628l8.885 23.82-260.058 710.397h-47.066l40.808-120.314 13.17-38.828z" style="fill:#660c0e;fill-opacity:1;fill-rule:evenodd;stroke:none" transform="matrix(1.33333 0 0 -1.33333 1.333 1198.433)"/><path d="m932.972 897.825 260.058-710.398 17.388 46.611-242.996 663.787h-25.741z" style="fill:#7d0f11;fill-opacity:1;fill-rule:evenodd;stroke:none" transform="matrix(1.33333 0 0 -1.33333 1.333 1198.433)"/><path d="m967.422 897.825 242.996-663.787 17.705 47.461-225.621 616.326zm970.219-323.242-64.077-175.04h35.079l64.077 175.04z" style="fill:#991416;fill-opacity:1;fill-rule:evenodd;stroke:none" transform="matrix(1.33333 0 0 -1.33333 1.333 1198.433)"/><path d="m1972.72 574.583-64.077-175.04h34.45l64.078 175.04z" style="fill:#7d0f11;fill-opacity:1;fill-rule:evenodd;stroke:none" transform="matrix(1.33333 0 0 -1.33333 1.333 1198.433)"/><path d="m2007.17 574.583-64.076-175.04h28.168l63.65 175.04z" style="fill:#660c0e;fill-opacity:1;fill-rule:evenodd;stroke:none" transform="matrix(1.33333 0 0 -1.33333 1.333 1198.433)"/><path d="m1815.965 163.608 34.9 98.628v75.3l-63.671-173.928z" style="fill:#991416;fill-opacity:1;fill-rule:evenodd;stroke:none" transform="matrix(1.33333 0 0 -1.33333 1.333 1198.433)"/><text xml:space="preserve" transform="translate(-19.13 1197.594)scale(1.33333)" style="font-variant:normal;font-weight:300;font-size:125.805px;font-family:Montserrat;-inkscape-font-specification:Montserrat-Light;writing-mode:lr-tb;fill:#c21d20;fill-opacity:1;fill-rule:nonzero;stroke:none"><tspan x="0 121.0243 237.52 343.44791 412.89249 535.17493 667.27051 773.32422 894.34851 1003.2958 1132.6232 1249.1189 1358.0662 1479.0905 1595.0831 1717.4913 1786.9355 1907.9602 1977.4045" y="0">PELÍCULAS ESPECIAIS</tspan></text></svg>