<svg xmlns="http://www.w3.org/2000/svg" xmlns:xlink="http://www.w3.org/1999/xlink" width="307" zoomAndPan="magnify" viewBox="0 0 230.25 283.500005" height="378" preserveAspectRatio="xMidYMid meet" version="1.0"><defs><clipPath id="1d03fd0668"><path d="M 12.078125 99.332031 L 16.359375 99.332031 L 16.359375 102.96875 L 12.078125 102.96875 Z M 12.078125 99.332031 " clip-rule="nonzero"/></clipPath><clipPath id="22ee306698"><path d="M 16.347656 100.652344 C 14.402344 103.644531 12.609375 103.042969 12.234375 102.445312 C 11.863281 101.773438 12.234375 99.980469 12.757812 99.53125 C 13.359375 99.082031 15.75 99.679688 15.75 99.679688 " clip-rule="nonzero"/></clipPath><clipPath id="b2ade8828f"><path d="M 4.472656 76.246094 L 224.53125 76.246094 L 224.53125 197.90625 L 4.472656 197.90625 Z M 4.472656 76.246094 " clip-rule="nonzero"/></clipPath><clipPath id="2ab8b7d231"><path d="M 4.984375 76.78125 L 4.984375 197.675781 L 22.886719 197.675781 L 22.886719 108.109375 L 114.667969 156.261719 L 205.320312 108.109375 L 205.320312 197.675781 L 224.019531 197.675781 L 224.019531 76.941406 L 114.667969 134.972656 Z M 4.984375 76.78125 " clip-rule="nonzero"/></clipPath><clipPath id="6c110d0295"><path d="M 52 28 L 178 28 L 178 255 L 52 255 Z M 52 28 " clip-rule="nonzero"/></clipPath><clipPath id="64024bf1c1"><path d="M 52 28.757812 L 52 110.371094 L 70.988281 119.324219 L 70.988281 47.707031 L 158.292969 47.707031 L 158.292969 73.433594 L 177.332031 63.34375 L 177.332031 28.757812 Z M 158.292969 111.507812 L 158.292969 235.753906 L 71 235.753906 L 71 170.824219 L 52 160.738281 L 52 254.414062 L 177.332031 254.414062 L 177.332031 111.507812 Z M 158.292969 111.507812 " clip-rule="nonzero"/></clipPath><clipPath id="fb43510a3a"><path d="M 106.929688 235.902344 L 122.382812 235.902344 L 122.382812 277.296875 L 106.929688 277.296875 Z M 106.929688 235.902344 " clip-rule="nonzero"/></clipPath><clipPath id="699b98ec8a"><path d="M 106.929688 5.195312 L 122.382812 5.195312 L 122.382812 46.589844 L 106.929688 46.589844 Z M 106.929688 5.195312 " clip-rule="nonzero"/></clipPath></defs><g clip-path="url(#1d03fd0668)"><g clip-path="url(#22ee306698)"><path fill="#e7191f" d="M 9.246094 96.539062 L 19.34375 96.539062 L 19.34375 106.332031 L 9.246094 106.332031 Z M 9.246094 96.539062 " fill-opacity="1" fill-rule="nonzero"/></g></g><g clip-path="url(#b2ade8828f)"><g clip-path="url(#2ab8b7d231)"><path fill="#5ab334" d="M 0 0.210938 L 229.003906 0.210938 L 229.003906 281.992188 L 0 281.992188 Z M 0 0.210938 " fill-opacity="1" fill-rule="nonzero"/></g></g><g clip-path="url(#6c110d0295)"><g clip-path="url(#64024bf1c1)"><path fill="#5ab334" d="M 0 0.210938 L 229.003906 0.210938 L 229.003906 281.992188 L 0 281.992188 Z M 0 0.210938 " fill-opacity="1" fill-rule="nonzero"/></g></g><g clip-path="url(#fb43510a3a)"><path fill="#5ab334" d="M 0 0.210938 L 229.003906 0.210938 L 229.003906 281.992188 L 0 281.992188 Z M 0 0.210938 " fill-opacity="1" fill-rule="nonzero"/></g><g clip-path="url(#699b98ec8a)"><path fill="#5ab334" d="M 0 0.210938 L 229.003906 0.210938 L 229.003906 281.992188 L 0 281.992188 Z M 0 0.210938 " fill-opacity="1" fill-rule="nonzero"/></g></svg>